<mxfile host="app.diagrams.net" agent="Mozilla/5.0 (Windows NT 10.0; Win64; x64) AppleWebKit/537.36 (KHTML, like Gecko) Chrome/137.0.0.0 Safari/537.36 Edg/137.0.0.0" version="27.1.6">
  <diagram name="第 1 页" id="_FsjZId1IItgky6wcJSt">
    <mxGraphModel dx="830" dy="1913" grid="1" gridSize="10" guides="1" tooltips="1" connect="1" arrows="1" fold="1" page="1" pageScale="1" pageWidth="5866" pageHeight="7866" math="1" shadow="0">
      <root>
        <mxCell id="0" />
        <mxCell id="1" parent="0" />
        <mxCell id="UpazrJVpiqtKpTAvuoWl-1" value="multi微分" style="rounded=0;whiteSpace=wrap;html=1;fontSize=16;dashed=1;strokeColor=#6666FF;" vertex="1" parent="1">
          <mxGeometry x="30" y="120" width="120" height="60" as="geometry" />
        </mxCell>
        <mxCell id="UpazrJVpiqtKpTAvuoWl-2" value="multi积分" style="rounded=0;whiteSpace=wrap;html=1;fontSize=16;dashed=1;strokeColor=#FFB366;" vertex="1" parent="1">
          <mxGeometry x="590" y="120" width="120" height="60" as="geometry" />
        </mxCell>
        <mxCell id="UpazrJVpiqtKpTAvuoWl-3" value="空间解析几何" style="rounded=0;whiteSpace=wrap;html=1;fontSize=16;dashed=1;strokeColor=#CCCCCC;" vertex="1" parent="1">
          <mxGeometry x="310" y="620" width="120" height="60" as="geometry" />
        </mxCell>
        <mxCell id="UpazrJVpiqtKpTAvuoWl-5" value="梯度\(\Delta F\)" style="rounded=1;whiteSpace=wrap;html=1;" vertex="1" parent="1">
          <mxGeometry x="100" y="260" width="100" height="30" as="geometry" />
        </mxCell>
        <mxCell id="UpazrJVpiqtKpTAvuoWl-6" value="法向量n" style="rounded=1;whiteSpace=wrap;html=1;" vertex="1" parent="1">
          <mxGeometry x="220" y="550" width="100" height="30" as="geometry" />
        </mxCell>
        <mxCell id="UpazrJVpiqtKpTAvuoWl-7" value="$$(\frac{\partial F}{\partial x},\frac{\partial F}{\partial y},\frac{\partial F}{\partial z})$$" style="rounded=0;whiteSpace=wrap;html=1;strokeColor=none;" vertex="1" parent="1">
          <mxGeometry x="90" y="330" width="120" height="60" as="geometry" />
        </mxCell>
        <mxCell id="UpazrJVpiqtKpTAvuoWl-8" value="&lt;font style=&quot;color: rgb(255, 179, 102);&quot;&gt;Surface &lt;/font&gt;integral" style="rounded=1;whiteSpace=wrap;html=1;" vertex="1" parent="1">
          <mxGeometry x="580" y="260" width="100" height="30" as="geometry" />
        </mxCell>
        <mxCell id="UpazrJVpiqtKpTAvuoWl-9" value="方向判定" style="rounded=0;whiteSpace=wrap;html=1;strokeColor=none;" vertex="1" parent="1">
          <mxGeometry x="530" y="330" width="120" height="60" as="geometry" />
        </mxCell>
      </root>
    </mxGraphModel>
  </diagram>
</mxfile>
